<svg width="40" height="40" viewBox="0 0 40 40" fill="none" xmlns="http://www.w3.org/2000/svg">
<path d="M12.257 4.58337H6.25C5.80798 4.58337 5.38405 4.75897 5.07149 5.07153C4.75893 5.38409 4.58334 5.80801 4.58334 6.25004V33.75C4.58334 34.1921 4.75893 34.616 5.07149 34.9286C5.38405 35.2411 5.80798 35.4167 6.25 35.4167H30.4575M35.4167 22.2383V6.25004C35.4167 5.80801 35.2411 5.38409 34.9285 5.07153C34.616 4.75897 34.192 4.58337 33.75 4.58337H23.7006" stroke="#4E238C" stroke-linecap="round" stroke-linejoin="round"/>
<path d="M4.58334 23.5591C5.28334 24.8691 6.41167 24.9403 7.18092 23.3862C10.4194 25.8344 13.9823 26.97 18.05 26.0634C20.8039 27.1855 23.4606 28.5329 25.9931 30.0917C25.256 31.4266 25.337 31.7028 27.2931 32.8204C27.6775 33.029 28.1172 33.1132 28.5514 33.0611C29.3156 34.1575 30.1817 35.1792 31.1382 36.1126C31.2805 36.2733 31.457 36.4002 31.6547 36.4838C31.8524 36.5675 32.0664 36.6059 32.2809 36.5961C32.4954 36.5863 32.7049 36.5287 32.8942 36.4274C33.0835 36.3261 33.2478 36.1837 33.3749 36.0107C40.315 28.9333 37.3378 22.4647 35.9744 22.255C33.3084 21.8448 32.3501 26.23 32.3501 26.23C31.8104 26.5543 31.3531 26.9993 31.0142 27.53C30.0252 27.0043 29.1843 25.8888 28.1493 26.1122C27.6304 26.2336 27.1758 27.1886 27.1758 27.1886C25.6623 26.4164 24.1484 25.6446 22.5138 24.9689C23.0984 24.7384 23.5909 24.3219 23.9153 23.7838C24.2398 23.2457 24.3782 22.6158 24.3093 21.9912C25.8238 22.319 27.4041 22.1408 28.8077 21.4841C32.4743 23.4061 33.5756 19.0201 29.5665 19.8396C32.7022 17.8446 32.3393 14.5887 31.2244 11.9881C31.8265 11.1683 32.8892 10.0955 30.1256 9.97681C30.4629 7.40048 31.0916 6.26789 27.7118 7.40898C21.0687 1.79464 15.0519 1.43739 10.7969 3.15839C11.5359 4.00632 12.3769 4.75957 13.3008 5.40098C10.1558 5.80681 7.2592 7.32223 5.1325 9.67431C8.11742 10.1976 10.5753 10.4857 12.9459 11.0964C11.8295 11.5998 10.755 12.1914 9.73275 12.8657C7.05125 14.0074 7.63275 15.6163 7.4185 17.1113C6.60884 15.6051 5.87267 13.9834 4.58334 13.2319" stroke="#4E238C" stroke-linecap="round" stroke-linejoin="round"/>
<path d="M21.5833 21.3788C20.1573 20.2476 18.4677 19.4964 16.6725 19.1955C15.8659 20.2376 14.7348 20.135 13.436 19.4416C12.892 20.1597 12.0879 20.6355 11.1966 20.7666C10.3054 20.8978 9.39825 20.6738 8.6705 20.1428C7.76767 19.4149 7.243 19.15 7.02209 18.3722C6.92959 18.0462 6.70684 17.5005 7.41825 17.111C6.47042 15.3213 7.937 14.2155 9.09158 13.511C9.76025 13.1031 10.8648 13.509 11.6444 13.7853C12.4453 14.1757 13.1918 14.6692 13.8648 15.2531C15.7615 14.889 16.987 15.493 17.3724 17.3088C19.0461 18.1398 20.5945 19.2023 21.9719 20.4651" stroke="#4E238C" stroke-linecap="round" stroke-linejoin="round"/>
<path d="M8.58042 20.0697C8.53711 20.3796 8.46457 20.6846 8.36375 20.9808C10.2328 22.8815 14.4906 24.0934 16.8711 24.0934C17.5809 22.6467 18.5158 21.3219 19.641 20.1684" stroke="#4E238C" stroke-linecap="round" stroke-linejoin="round"/>
<path d="M13.3008 5.40079C16.1397 5.10137 18.9841 4.82379 22.3562 6.56745" stroke="#4E238C" stroke-linecap="round" stroke-linejoin="round"/>
<path d="M12.9459 11.0962C15.1726 11.6789 17.3665 12.3802 19.5183 13.1972C17.0112 13.1634 14.5562 13.213 12.8628 14.4805" stroke="#4E238C" stroke-linecap="round" stroke-linejoin="round"/>
<path d="M30.2583 7.20764C28.9603 7.85306 27.8652 8.84353 27.093 10.0704" stroke="#4E238C" stroke-linecap="round" stroke-linejoin="round"/>
</svg>
